<?xml version="1.0" encoding="utf-8"?><!-- Uploaded to: SVG Repo, www.svgrepo.com, Generator: SVG Repo Mixer Tools -->
<svg fill="#000000" width="800px" height="800px" viewBox="0 0 56 56" xmlns="http://www.w3.org/2000/svg"><path d="M 46.8790 32.5000 C 48.7307 32.5000 49.7852 31.5156 49.7852 29.8750 C 49.7852 29.1015 49.4104 28.2813 48.7542 27.5781 L 30.8477 7.8203 C 30.0509 6.9531 29.1368 6.3672 27.9650 6.3672 C 26.8399 6.3672 25.8790 7.0000 25.1056 7.8203 L 7.1759 27.5781 C 6.5196 28.2813 6.1446 29.1015 6.1681 29.8750 C 6.1915 31.5156 7.1993 32.5000 9.0743 32.5000 Z M 45.8477 37.7969 L 10.1524 37.7969 C 7.3165 37.7969 5.7228 39.2734 5.7228 42.0625 L 5.7228 45.3437 C 5.7228 48.1328 7.3165 49.6328 10.1524 49.6328 L 45.8477 49.6328 C 48.6601 49.6328 50.2772 48.1562 50.2772 45.3437 L 50.2772 42.0625 C 50.2772 39.2500 48.6601 37.7969 45.8477 37.7969 Z"/></svg>