<?xml version="1.0" ?><svg xmlns="http://www.w3.org/2000/svg" width="24" height="24" viewBox="0 0 16 16" fill="none"><path d="M5 5H11V11H5Z" fill="black"/><path d="M1 1H3V3H1V1Z" fill="black"/><path d="M1 5H3V7H1V5Z" fill="black"/><path d="M5 1H7V3H5V1Z" fill="black"/><path d="M1 13H3V15H1V13Z" fill="black"/><path d="M1 9H3V11H1V9Z" fill="black"/><path d="M5 13H7V15H5V13Z" fill="black"/><path d="M9 1H11V3H9V1Z" fill="black"/><path d="M9 13H11V15H9V13Z" fill="black"/><path d="M13 1H15V3H13V1Z" fill="black"/><path d="M13 13H15V15H13V13Z" fill="black"/><path d="M13 9H15V11H13V9Z" fill="black"/><path d="M13 5H15V7H13V5Z" fill="black"/></svg>