<?xml version='1.0' encoding='UTF-8'?>
<svg viewBox="-3.355 -2 32 32" xmlns="http://www.w3.org/2000/svg" xmlns:xlink="http://www.w3.org/1999/xlink">
  <g id="Layer_1" transform="translate(-1.8066, -0.9032)" style="enable-background:new 0 0 32 32">
    <g transform="matrix(0.9032, 0, 0, 0.9032, 0, 0)">
      <g id="ItemTypeChecked">
        <g>
          <g>
            <rect x="20" y="8" width="10" height="4" fill="#727272" class="Black" />
          </g>
        </g>
      </g>
    </g>
  </g>
  <g id="Layer_1" transform="translate(-1.8066, -0.9032)" style="enable-background:new 0 0 32 32">
    <g transform="matrix(0.9032, 0, 0, 0.9032, 0, 0)">
      <g id="ItemTypeChecked">
        <g>
          <g>
            <rect x="20" y="22" width="10" height="4" fill="#727272" class="Black" />
          </g>
        </g>
      </g>
    </g>
  </g>
  <g id="Layer_1" transform="translate(-1.8066, -0.9032)" style="enable-background:new 0 0 32 32">
    <g transform="matrix(0.9032, 0, 0, 0.9032, 0, 0)">
      <g id="ItemTypeChecked">
        <g>
          <g>
            <path d="M15, 18L3, 18C2.5, 18 2, 18.5 2, 19L2, 31C2, 31.5 2.5, 32 3, 32L15, 32C15.5, 32 16, 31.5 16, 31L16, 19C16, 18.5 15.5, 18 15, 18zM14, 30L4, 30L4, 20L14, 20L14, 30z" fill="#727272" class="Black" />
          </g>
        </g>
      </g>
    </g>
  </g>
  <g id="Layer_1" transform="translate(-1.8066, -0.9032)" style="enable-background:new 0 0 32 32">
    <g transform="matrix(0.9032, 0, 0, 0.9032, 0, 0)">
      <g id="ItemTypeChecked">
        <g>
          <g>
            <path d="M14, 10.8L14, 14L4, 14L4, 4L12.2, 4L14.2, 2L3, 2C2.5, 2 2, 2.5 2, 3L2, 15C2, 15.5 2.5, 16 3, 16L15, 16C15.5, 16 16, 15.5 16, 15L16, 8.8L14, 10.8z" fill="#727272" class="Black" />
          </g>
        </g>
      </g>
    </g>
  </g>
  <g id="Layer_1" transform="translate(-1.8066, -0.9032)" style="enable-background:new 0 0 32 32">
    <g transform="matrix(0.9032, 0, 0, 0.9032, 0, 0)">
      <g id="ItemTypeChecked">
        <g>
          <g>
            <rect x="20" y="8" width="10" height="4" fill="#727272" class="Black" />
          </g>
        </g>
      </g>
    </g>
  </g>
  <g id="Layer_1" transform="translate(-1.8066, -0.9032)" style="enable-background:new 0 0 32 32">
    <g transform="matrix(0.9032, 0, 0, 0.9032, 0, 0)">
      <g id="ItemTypeChecked">
        <g>
          <g>
            <rect x="20" y="22" width="10" height="4" fill="#727272" class="Black" />
          </g>
        </g>
      </g>
    </g>
  </g>
  <g id="Layer_1" transform="translate(-1.8066, -0.9032)" style="enable-background:new 0 0 32 32">
    <g transform="matrix(0.9032, 0, 0, 0.9032, 0, 0)">
      <g id="ItemTypeChecked">
        <g>
          <g>
            <path d="M15, 18L3, 18C2.5, 18 2, 18.5 2, 19L2, 31C2, 31.5 2.5, 32 3, 32L15, 32C15.5, 32 16, 31.5 16, 31L16, 19C16, 18.5 15.5, 18 15, 18zM14, 30L4, 30L4, 20L14, 20L14, 30z" fill="#727272" class="Black" />
          </g>
        </g>
      </g>
    </g>
  </g>
  <g id="Layer_1" transform="translate(-1.8066, -0.9032)" style="enable-background:new 0 0 32 32">
    <g transform="matrix(0.9032, 0, 0, 0.9032, 0, 0)">
      <g id="ItemTypeChecked">
        <g>
          <g>
            <path d="M14, 10.8L14, 14L4, 14L4, 4L12.2, 4L14.2, 2L3, 2C2.5, 2 2, 2.5 2, 3L2, 15C2, 15.5 2.5, 16 3, 16L15, 16C15.5, 16 16, 15.5 16, 15L16, 8.8L14, 10.8z" fill="#727272" class="Black" />
          </g>
        </g>
      </g>
    </g>
  </g>
  <g id="Layer_1" transform="translate(-1.8066, -0.9032)" style="enable-background:new 0 0 32 32">
    <g transform="matrix(0.9032, 0, 0, 0.9032, 0, 0)">
      <g id="ItemTypeChecked">
        <polygon points="6,5 6,8 10,12 18,4 18,1 10,9  " fill="#039C23" class="Green" />
      </g>
    </g>
  </g>
</svg>