<?xml version='1.0' encoding='UTF-8'?>
<svg viewBox="-2 -2 32 32" xmlns="http://www.w3.org/2000/svg" xmlns:xlink="http://www.w3.org/1999/xlink">
  <g id="ListNumbers" transform="translate(-2,-3)" style="enable-background:new 0 0 32 32">
    <path d="M30, 8L12, 8L12, 6L30, 6L30, 8zM30, 18L12, 18L12, 16L30, 16L30, 18zM30, 28L12, 28L12, 26L30, 26L30, 28z" fill="#727272" class="Black" />
  </g>
  <g id="ListNumbers" transform="translate(-22, -2)" style="enable-background:new 0 0 32 32">
    <path d="M28, 2L28, 10L26, 10L26, 5.25L24, 5.25L24, 3.67L24.15, 3.67C24.39, 3.67 24.63, 3.65 24.86, 3.61C25.12, 3.56 25.35, 3.47 25.55, 3.35C25.75, 3.23 25.92, 3.07 26.06, 2.87C26.2, 2.67 26.29, 2.43 26.33, 2.13L26.37, 2L28, 2zM30, 20L30, 18.39L26.58, 18.39C26.71, 18.23 26.86, 18.09 27.02, 17.97C27.26, 17.78 27.51, 17.6 27.77, 17.43C28.03, 17.26 28.29, 17.09 28.54, 16.92C28.8, 16.74 29.04, 16.54 29.25, 16.32C29.46, 16.1 29.63, 15.84 29.76, 15.55C29.89, 15.26 29.96, 14.91 29.96, 14.51C29.96, 14.12 29.88, 13.77 29.74, 13.45C29.59, 13.14 29.39, 12.87 29.14, 12.66C28.89, 12.45 28.6, 12.28 28.27, 12.17C27.93, 12.06 27.58, 12 27.22, 12C26.75, 12 26.32, 12.08 25.96, 12.24C25.59, 12.4 25.28, 12.64 25.04, 12.93C24.8, 13.22 24.62, 13.56 24.49, 13.95C24.37, 14.34 24.32, 14.76 24.33, 15.2L24.33, 15.34L26.08, 15.34L26.08, 15.2C26.08, 15.01 26.1, 14.81 26.14, 14.62C26.18, 14.43 26.24, 14.26 26.32, 14.1C26.4, 13.95 26.51, 13.83 26.65, 13.74C26.78, 13.65 26.94, 13.61 27.14, 13.61C27.44, 13.61 27.67, 13.7 27.85, 13.88C28.03, 14.06 28.12, 14.31 28.12, 14.63C28.12, 14.83 28.07, 15.02 27.98, 15.17C27.88, 15.34 27.76, 15.49 27.62, 15.62C27.47, 15.76 27.31, 15.88 27.13, 16C26.94, 16.12 26.76, 16.24 26.6, 16.35C26.27, 16.57 25.97, 16.79 25.67, 17.01C25.37, 17.23 25.11, 17.48 24.88, 17.74C24.66, 18.01 24.47, 18.31 24.34, 18.65C24.21, 18.99 24.14, 19.39 24.14, 19.85L24.14, 20L30, 20zM28.15, 29.83C28.5, 29.72 28.81, 29.55 29.08, 29.34C29.35, 29.12 29.57, 28.85 29.73, 28.53C29.89, 28.21 29.97, 27.84 29.97, 27.43C29.97, 26.97 29.84, 26.58 29.59, 26.25C29.41, 26.01 29.18, 25.84 28.9, 25.72C29.11, 25.6 29.29, 25.44 29.41, 25.24C29.6, 24.94 29.69, 24.6 29.69, 24.21C29.69, 23.85 29.61, 23.53 29.45, 23.26C29.29, 22.99 29.09, 22.76 28.83, 22.57C28.58, 22.38 28.3, 22.24 27.98, 22.15C27.68, 22.05 27.36, 22 27.05, 22C26.65, 22 26.28, 22.07 25.96, 22.2C25.63, 22.33 25.35, 22.52 25.11, 22.76C24.87, 23 24.69, 23.29 24.56, 23.62C24.43, 23.95 24.36, 24.32 24.34, 24.71L24.33, 24.86L26.06, 24.86L26.06, 24.72C26.05, 24.37 26.14, 24.08 26.31, 23.86C26.48, 23.64 26.72, 23.54 27.06, 23.54C27.3, 23.54 27.52, 23.61 27.7, 23.76C27.88, 23.9 27.97, 24.11 27.97, 24.38C27.97, 24.56 27.93, 24.7 27.85, 24.8C27.76, 24.91 27.65, 24.99 27.51, 25.05C27.37, 25.11 27.21, 25.15 27.04, 25.16C26.95, 25.17 26.87, 25.17 26.78, 25.17C26.7, 25.17 26.62, 25.17 26.54, 25.16L26.39, 25.15L26.39, 26.51L26.53, 26.51C26.71, 26.51 26.9, 26.52 27.1, 26.53C27.29, 26.54 27.46, 26.58 27.61, 26.64C27.76, 26.7 27.87, 26.79 27.97, 26.92C28.06, 27.04 28.11, 27.23 28.11, 27.48C28.11, 27.8 28.01, 28.05 27.81, 28.23C27.6, 28.42 27.35, 28.51 27.04, 28.51C26.84, 28.51 26.67, 28.48 26.53, 28.41C26.39, 28.34 26.27, 28.25 26.18, 28.13C26.09, 28.01 26.01, 27.87 25.96, 27.71C25.91, 27.54 25.88, 27.36 25.87, 27.18L25.87, 27.04L24.16, 27.04L24.16, 27.18C24.15, 27.63 24.22, 28.03 24.36, 28.38C24.5, 28.73 24.7, 29.03 24.95, 29.27C25.2, 29.51 25.51, 29.7 25.88, 29.83C26.24, 29.95 26.64, 30.02 27.07, 30.02C27.44, 30 27.8, 29.94 28.15, 29.83z" fill="#D11C1C" class="Red" />
  </g>
</svg>