<?xml version='1.0' encoding='UTF-8'?>
<svg viewBox="-2.4827 -2.0005 32 32" xmlns="http://www.w3.org/2000/svg" xmlns:xlink="http://www.w3.org/1999/xlink">
  <g id="Layer_1" transform="translate(1.931, -0.9655) rotate(180, 2.8965, 14.9652)" style="enable-background:new 0 0 32 32">
    <g transform="matrix(-1, 0, 0, 1, 9.655, 0)">
      <g transform="matrix(0.9655, 0, 0, 0.9655, 0, 0)">
        <g id="SortAsc">
          <path d="M12, 6L7, 1L2, 6L6, 6L6, 30L8, 30L8, 6L12, 6z" fill="#1177D7" class="Blue" />
        </g>
      </g>
    </g>
  </g>
  <g id="Layer_1" transform="translate(25.103, -1.931) rotate(180, -5.793, 15.448)" style="enable-background:new 0 0 32 32">
    <g transform="matrix(-1, 0, 0, 1, 15.448, 0)">
      <g transform="matrix(0.9655, 0, 0, 0.9655, 0, 0)">
        <g id="SortAsc">
          <path d="M22, 10L14, 10L14, 2L22, 2L22, 10zM26, 12L14, 12L14, 20L26, 20L26, 12zM30, 22L14, 22L14, 30L30, 30L30, 22z" fill="#727272" class="Black" />
        </g>
      </g>
    </g>
  </g>
</svg>